<?xml version="1.0" encoding="UTF-8"?><svg id="Capa_1" xmlns="http://www.w3.org/2000/svg" viewBox="0 0 1855.59 475.38"><defs><style>.cls-1,.cls-2,.cls-3{stroke-width:0px;}.cls-2{fill:gray;}.cls-3{fill:blue;}</style></defs><path class="cls-3" d="m7.15,173.73c.89-38.85-1.45-78.32-4.15-117.77-.55-8.07-1.85-16.08-2.74-24.13-.92-8.34.39-10.34,8.56-12.54,6.62-1.78,13.43-3.04,20.23-3.22,20.38-.52,39.78-6.09,59.37-10.73,4.82-1.14,9.72-1.62,14.63-2.04,5.46-.48,6.98.67,8.03,6.29,1.14,6.12.93,12.34.96,18.52.03,4.45.11,8.88.72,13.29.58,4.23,1.36,4.65,4.88,2.04,7.99-5.91,15.89-11.93,23.86-17.86C165.39,7.81,192.21-1.39,221.98.32c23.38,1.34,44.89,8.44,61.57,26.24,5.31,5.67,8.95,12.34,12.15,19.24,1.7,3.67,3.1,4.45,5.98,1.24,10.36-11.53,21.91-21.7,35.54-29.2,27.57-15.17,56.56-22.24,88.04-14.96,18.05,4.17,34.97,10.3,48.1,24.2,12.06,12.77,18.72,27.9,19.6,45.29,1.33,26.35-.15,52.69-1.47,79.01-1.91,38.12,1.7,76.16,1.55,114.25-.03,8.89-.03,17.79-.55,26.66-.47,7.94-5.46,12.61-12.97,12.94-25.1,1.1-50.22,1.35-75.33.87-3.01-.06-6.03-.39-9.01-.8-7.93-1.11-12.25-5.89-12.64-13.99-.63-13.02-.43-26.04.04-39.05,1.42-39.2,1.33-78.39-.13-117.58-.28-7.43-.31-14.89-3.38-21.97-5.67-13.1-17.71-20.64-31.92-19.16-19.32,2.01-32.19,13.01-40.4,30.01-2.12,4.38-1.98,9.28-2.14,14.03-1.57,46.2-.85,92.4-.43,138.61.06,6.19.12,12.39,0,18.58-.14,7.04-1.93,8.8-9.07,9.39-12.07,1-24.15.19-36.23.27-16.7.12-33.4.02-50.1-.06-12.78-.06-15.12-2.34-14.95-15.01.6-45.09,2.26-90.18.7-135.27-.42-12.32.57-24.71-2.41-36.96-3.7-15.19-17.89-27-35.89-23.1-13.87,3.01-25.56,9.4-34.61,20.31-3.95,4.76-5.81,10.3-5.77,16.68.26,47.48.36,94.95.46,142.43.01,6.51-.09,13.02-.46,19.52-.49,8.66-2.91,11.2-11.65,11.87-15.86,1.23-31.77,1.55-47.67,1.33-12.39-.18-24.78-.76-37.18-1.18-1.27-.04-2.54-.17-3.8-.38-6.3-1.08-7.51-2.28-7.81-8.68-1.31-28.09-.74-56.2-.61-84.31.06-12.39,0-24.77,0-37.89Z"/><path class="cls-3" d="m1842.22,188.68c0,35.57,0,71.13,0,106.7,0,1.43-.06,2.85-.17,4.28-.61,8.01-4.16,11.9-12.24,12.43-18.74,1.21-37.51.94-56.28.86-7.47-.03-14.95-.18-22.42-.39-2.85-.08-5.75-.17-8.53-.74-9.36-1.9-12.04-5.09-12.14-14.63-.29-26.53,1.97-52.99,2.14-79.51.17-27.48-1.06-54.92-2.32-82.35-.35-7.72-2.14-15.01-7.12-21.31-4.87-6.18-11.51-9.41-18.82-10.95-17.26-3.63-45.35,9.5-52.3,26.27-1,2.42-1.72,4.73-1.66,7.3.89,44.77,0,89.55-.1,134.32-.02,8.1-.05,16.2-.18,24.29-.22,13.73-3.32,16.94-17.34,17.34-21.46.61-42.94.62-64.4.04-4.92-.13-9.86-.29-14.76-.79-10.94-1.12-14.13-4.63-14.09-15.54.12-36.36.25-72.73.5-109.09.19-28.91-.14-57.8-1.78-86.66-1.15-20.32-4.77-40.28-8.88-60.18-3.29-15.91-1.52-13.63,10.61-15.24,24.28-3.23,48.38-7.35,72.47-11.63,8.61-1.53,17.22-3.04,25.75-4.91,3.4-.74,4.19.65,4.54,3.45,1.43,11.25,2.91,22.5,4.41,33.74.57,4.23,1.89,4.81,5.68,2.35,12.81-8.27,25.4-16.98,39.05-23.79,18.07-9.01,36.45-17.28,57.41-16.89,9.78.18,19.39,1.29,28.74,3.94,20.84,5.9,39.63,15.1,52.42,33.62,6.92,10.02,9.53,21.34,10.4,33.21,1.94,26.34.36,52.7.57,79.05.08,10.48.01,20.96.01,31.44.27,0,.54,0,.81,0Z"/><path class="cls-2" d="m930.44,10.9c8.43,0,16.88.38,25.28-.11,7.62-.45,11.01,5.05,14.64,9.67,8.01,10.16,15.53,20.72,22.97,31.31,8.36,11.9,16.38,24.04,24.63,36.02,4.04,5.86,5.98,6.02,9.99.21,10.91-15.82,21.51-31.86,32.39-47.71,6.14-8.95,12.49-17.75,20.29-25.42,2.43-2.39,5.01-3.47,8.36-3.72,17.16-1.24,34.3-.73,51.45.29,3.73.22,5.23,1.89,5.14,5.27-.43,16.65-.52,33.33-1.59,49.95-.55,8.55-7.09,14.61-12,21.17-16.66,22.23-34.79,43.39-49.58,66.98-4.58,7.31-4.69,7.74.6,15.42,17.48,25.38,38.78,47.8,56.12,73.27,5.01,7.36,7.92,14.87,7.34,23.88-.44,6.8.06,13.65,0,20.48-.06,6.13-.94,12.13-2.88,17.99-1.3,3.92-3.73,6.2-7.84,6.27-12.55.2-25.11.54-37.65-.47-3-.24-6.02-.47-9.03-.49-5.16-.03-8.82-2.25-12.03-6.34-14.77-18.82-27.88-38.8-41.42-58.48-3.11-4.52-6.71-8.72-10.2-12.97-2.51-3.06-4.74-2.84-6.95.64-10.49,16.55-21.83,32.52-33.13,48.52-6.29,8.89-12.39,17.94-19.66,26.1-1.52,1.71-3.13,3.34-5.48,3.45-17.78.8-35.55,1.05-53.19-1.86-4.11-.68-6.28-3.14-6.67-7.41-1.26-14.07-2.22-28.1-.36-42.24.9-6.87,3.11-13.02,7.71-17.99,9.57-10.34,16.85-22.44,26.01-33.1,9.14-10.65,17.1-22.24,25.29-33.64,2.48-3.45,4.94-6.94,7.03-10.63,1.66-2.92,1.32-5.93-.57-8.95-8.17-13.1-17.35-25.49-26.88-37.6-10.99-13.96-22.42-27.58-33.5-41.47-3.75-4.7-5.31-10.32-5.31-16.34,0-9.53-.04-19.05.03-28.58.04-5.11-1.69-9.97-1.74-15.1-.04-4.25,1.21-6.08,5.68-5.97,8.9.21,17.81.06,26.72.06,0-.11,0-.23,0-.34Z"/><path class="cls-3" d="m867.19,306.78c-6.71.88-12.56.66-18.43.44-45.62-1.65-91.26-1.08-136.89-1.15-50.1-.07-100.19-.1-150.29-.19-9.85-.02-19.71-.2-29.56-.35-1.38-.02-3.26.33-3.84-1.19-.55-1.44.96-2.52,1.88-3.6,3.1-3.64,7.68-5.06,11.65-7.21,32.95-17.85,65.27-36.82,98.08-54.92,14.42-7.95,28.15-17.13,43.17-24.03,3.83-1.76,7.13-4.68,10.6-7.16,2.39-1.71,4.49-1.47,6.99-.02,31.58,18.31,63.18,36.6,94.85,54.78,19.56,11.23,39.24,22.23,58.84,33.37,4.84,2.75,9.27,6.02,12.94,11.22Z"/><path class="cls-2" d="m702.68,99.6c0-30.33,0-60.66,0-90.99,0-1.58-.31-3.71,1.11-4.35,1.53-.69,2.69,1.25,3.84,2.25,5.26,4.57,8.23,10.71,11.43,16.71,6.3,11.82,13.01,23.47,20,34.82,12.58,20.42,24.06,41.45,36.38,62.01,17.44,29.1,34.58,58.37,51.71,87.65,14.32,24.48,28.45,49.08,42.62,73.65,1.31,2.28,2.29,4.75,3.35,7.17.51,1.17.92,2.53-.01,3.61-1.2,1.38-2.73.65-3.91-.02-6.32-3.57-12.69-7.08-18.85-10.91-20.98-13.04-42.31-25.47-63.99-37.32-9.66-5.28-18.69-11.73-28.41-16.88-7.98-4.23-15.94-8.48-23.75-13.01-8.46-4.9-16.87-9.88-25.41-14.64-3.76-2.09-5.33-5.02-5.32-9.24.06-30.17.03-60.34.03-90.51-.27,0-.54,0-.8,0Z"/><path class="cls-2" d="m691.92,99.54c0,29.53-.08,59.06.08,88.58.03,4.79-1.48,7.93-5.71,10.31-20.12,11.28-40.18,22.65-60.17,34.15-18.32,10.54-36.48,21.35-54.78,31.93-15.47,8.94-31.01,17.74-46.57,26.53-.93.53-2.05,1.83-3.36.54-1.1-1.07-.08-2.08.24-3.04,2.69-7.81,7.12-14.74,11.21-21.85,22.91-39.89,46.35-79.47,69.92-118.97,19.44-32.58,38.69-65.27,57.57-98.17,7.65-13.32,16.07-26.17,23.59-39.56.53-.94,1.19-1.88,1.99-2.59,1.42-1.25,3.11-2.91,4.99-2.13,1.91.8.97,3.11.97,4.73.06,29.85.04,59.69.04,89.54,0,0-.02,0-.02,0Z"/><path class="cls-2" d="m1342.76,105.02c0-30.48-.02-60.96.05-91.44,0-1.54-1.22-4.01,1.01-4.53,1.99-.46,3.28,1.81,4.23,3.35,5.65,9.11,11.23,18.26,16.67,27.5,18.32,31.17,36.54,62.4,54.85,93.57,17.83,30.36,35.83,60.63,53.56,91.05,10.95,18.8,21.44,37.87,32.98,56.33,2.61,4.18,4.06,8.93,5.61,13.58.46,1.39,1.42,3.3-.16,4.4-1.26.87-2.72-.28-3.91-1.05-5.98-3.84-11.8-7.93-17.92-11.53-24.18-14.2-48.41-28.34-72.72-42.34-17.24-9.93-34.63-19.59-51.96-29.38-5.78-3.26-11.44-6.74-17.34-9.75-3.83-1.95-4.95-4.75-4.94-8.8.09-30.32.05-60.64.05-90.97-.02,0-.05,0-.07,0Z"/><path class="cls-3" d="m1339.05,311.59c-44.05,0-88.1.03-132.14-.02-9.38-.01-18.76-.27-28.14-.5-2.06-.05-4.12-.32-6.15-.69-1.48-.27-3.64-.1-3.9-1.98-.23-1.67,1.52-2.76,2.92-3.41,16.39-7.65,31.39-17.76,47.18-26.49,19.13-10.58,38.09-21.47,57.09-32.3,19.18-10.93,38.32-21.94,57.45-32.97,2.17-1.25,4.01-1.3,6.22-.05,32.21,18.2,64.26,36.66,96.17,55.38,19.99,11.73,40.3,22.9,60.43,34.37,2.48,1.41,4.82,3.07,7.2,4.66,1.06.71,2.27,1.47,1.74,3.01-.5,1.46-1.9.88-2.91.89-13.51.16-27.03.35-40.54.37-40.87.05-81.74.02-122.61.02v-.28Z"/><path class="cls-2" d="m1331.85,6.91c-.29,5.82-.69,10.22-.7,14.62-.12,52.87-.15,105.73-.29,158.6-.01,5.83.53,11.67-.84,17.52-.89,3.79-2.91,6.16-6.07,7.87-19.78,10.68-39.48,21.49-58.9,32.81-17.56,10.23-35.17,20.37-52.79,30.49-14.91,8.57-29.98,16.86-44.6,25.93-2.09,1.29-5.14,3.69-6.81,2.21-2.1-1.87.1-5.19,1.28-7.37,6.08-11.22,13.11-21.89,19.4-33,12.8-22.62,26.19-44.9,39.34-67.32,16.08-27.42,32.09-54.88,48.25-82.25,18.02-30.53,36.2-60.98,54.25-91.49,1.91-3.22,4.74-5.35,8.47-8.62Z"/><path class="cls-1" d="m1634.87,389.43c-.92,12.69-4.16,27.11-6.9,41.6-1.95,10.28-4.23,20.51-6.37,30.76-.19.93-.32,1.88-.58,2.79-2.39,8.6-10.05,12.15-18.41,8.67-1.67-.7-2.06-1.88-1.94-3.38.26-3.16.2-6.43,1.01-9.45,4.9-18.26,6.52-37.18,11.43-55.44,1.24-4.6,1.64-9.38,1.58-14.16-.13-10.58-7.91-16.17-18.06-13.16-12.53,3.71-19.73,13.05-26.22,23.58-5.93,9.63-7.7,20.35-9.87,31.06-2.42,11.96-5.01,23.88-7.42,35.84-.8,3.96-2.96,5.69-7,5.37-3.16-.26-6.35-.2-9.52-.37-3.15-.17-4.59-1.59-3.64-4.93,4.68-16.52,6.66-33.61,10.69-50.27,2.17-8.97,3.28-18.12,3.38-27.35.13-11.91-8.25-17.33-19.23-12.44-17.4,7.75-26.55,22.26-31.11,39.8-3.55,13.62-6.12,27.52-8.66,41.37-2.48,13.56-4.92,15.56-18.93,14.27-4.28-.4-2.2-3.14-2-4.87,2.25-19.1,7.05-37.72,10.65-56.57,2.68-14.02,5.36-28.04,8.32-42,1.89-8.9,5.51-11.1,13.63-9.51,3.12.61,4.34,2.3,4.3,5.22-.05,3.19-.47,6.32-1.44,9.37-.37,1.17-.92,2.7.56,3.37,1.15.52,2.04-.74,2.68-1.52,6.51-8.02,15.16-12.78,24.55-16.62,12.86-5.25,28.82,1.07,34.29,13.83,3.38,7.88,3.32,7.83,8.79,1.9,8.32-9.01,18.29-15.38,30.61-17.04,17.84-2.4,30.86,9.7,30.85,30.28Z"/><path class="cls-1" d="m1726.55,456.98c-3.55.88-5.56,3.48-7.79,5.58-8.08,7.64-17.88,11.85-28.67,12.64-13.47.99-29.4-5.26-32.1-25.27-3.95-29.3,2.77-56.19,24.1-77.98,6.39-6.52,14.29-10.9,23.54-12.71,13.39-2.62,23.81,3.33,33.64,11.07,2.81,2.22,4.22,3.54,5.13-1.51,1.25-6.98,11.07-11.03,17.19-7.68,2.21,1.21,1.37,2.96,1.15,4.58-1.81,13.21-5.11,26.14-7.53,39.24-3.77,20.43-7.87,40.79-12.52,61.03-1.91,8.31-8.18,11.1-14.33,6.75-2.39-1.69-3.11-4-2.96-6.61.17-2.97.72-5.91,1.14-9.13Zm-16.99-80.21c-4.65-.15-11.09,2.95-16.95,10.39-9.89,12.56-13.49,27.43-14.97,42.95-.65,6.85-.45,13.64,2.58,20.05,2.52,5.33,7.58,9,13.29,8.17,6.22-.91,12.41-2.28,17.57-6.61,17.75-14.89,23.02-35.42,26.13-56.94.44-3.08-.55-6-3.01-8.18-6.21-5.49-13.07-9.53-24.65-9.83Z"/><path class="cls-1" d="m1387.9,421.97c-1.43,0-2.86-.02-4.29,0-10.84.16-8.41-1.12-9.68,9.13-.61,4.95.02,9.83,1.48,14.56,2.31,7.51,10.86,13.39,19.46,13.68,12.93.43,25.16-2.97,37.26-6.93,3.44-1.13,3.47-.56,3.67,2.97.62,10.73-6.42,13.83-14.62,15.98-14.29,3.76-28.67,5.56-43.28,1.51-13.83-3.83-22.38-13.98-23.6-28.25-1.91-22.32,3.34-42.73,16.08-61.25,14.77-21.46,42.54-30.18,65.07-20.3,9.63,4.22,16.98,10.84,17.77,21.66.82,11.3-4.9,20.11-14.2,26.37-8.09,5.45-17.44,7.48-26.91,8.93-8.02,1.22-16.09,1.94-24.21,1.93Zm2.59-15.17c11.26-.59,22.54-1.28,33.2-5.37,5.02-1.92,8.51-5.72,9.12-11.22.57-5.1-1.45-9.24-6.06-11.99-4.08-2.44-8.39-3.63-13.16-3.21-15.02,1.34-25.24,9.47-31.7,22.64-3.95,8.05-2.79,9.61,6.21,9.26.79-.03,1.59-.08,2.38-.12Z"/><path class="cls-1" d="m1237.6,358.72c8.31-.62,16.61,3.21,24.58,7.45,4.03,2.15,2.76,6.79,1.68,10.32-1.97,6.47-3.05,6.95-9.02,4.02-7.69-3.77-15.46-6.44-24.24-5.23-7.99,1.1-12.82,5.73-15.6,12.92-1.5,3.89-.82,7.39,2,10.59,2.78,3.17,6.13,5.51,9.79,7.46,4.62,2.46,9.28,4.85,13.96,7.21,19.31,9.73,19.75,28.03,9.54,43.45-10.35,15.64-26.96,18.43-44.19,18.09-6.63-.13-13.17-2.05-19.44-4.42-7.1-2.68-10.1-9.99-7.18-17.01,2.06-4.95,4.61-5.84,8.63-2.37,7.29,6.28,15.79,8.8,25.13,8.21,8.1-.52,15.64-2.75,20.53-10.13,3.93-5.94,3.52-11.67-1.53-16.78-4.68-4.74-10.96-6.91-16.56-10.17-3.15-1.83-6.44-3.49-9.34-5.66-13.18-9.86-15.67-25.28-6.46-39.01,8.03-11.96,20.87-18.61,37.71-18.94Z"/><path class="cls-1" d="m1060.77,475.33c-7.38-.42-16.33-2.27-24.71-6.49-5.44-2.75-7.37-13.16-3.36-17.89,1.57-1.85,3.15-.9,4.72-.23,5.1,2.19,9.61,5.66,14.99,7.25,10.5,3.11,20.69,1.64,29.77-4.05,9.16-5.74,8.26-19.1-1.24-24.79-4.76-2.85-9.68-5.51-14.73-7.8-28.88-13.11-20.1-44.18-2.48-54.95,16.29-9.96,32.74-9.96,49.25-.8,5.77,3.2,6,12.5.62,16.26-2.04,1.43-4.05-.11-5.77-1-5.84-3.02-11.78-5.62-18.48-5.75-6.15-.12-11.94.7-16.84,5.15-8.01,7.28-7.46,17.49,1.81,23.11,5.42,3.28,11.1,6.21,16.88,8.81,23.79,10.7,20.65,34.1,9.23,47.88-7.67,9.26-23.46,15.44-39.66,15.3Z"/><path class="cls-1" d="m1335.27,361.26c2.54,0,5.12-.26,7.62.07,2.79.37,6.81-1.43,7.49,3.52.94,6.85-.87,11.17-5.54,12.71-6.07,1.99-12.32.83-18.48.67-8.71-.23-8.81-.4-10.58,8.28-3.68,18.01-7.25,36.05-10.83,54.08-.28,1.39-.27,2.84-.4,4.26-1.08,11.45,3.72,13.91,14.81,12.55,2.5-.31,4.92-1.35,7.42-1.63,4.25-.48,6.22,1.72,5.67,5.93-.55,4.28-3.03,7.45-6.63,9.34-10.97,5.75-22.22,5.24-32.9-.48-7.3-3.91-8.72-11.38-8.39-18.97.6-13.52,2.96-26.81,6.49-39.85,2.58-9.51,2.86-19.46,6.06-28.82,1-2.93-.21-4.15-3.1-4.15-3.02,0-6.03.04-9.05-.04-3.15-.07-4.68-1.64-4.22-4.88.04-.31.03-.63.06-.95q1.12-11.67,12.82-11.54c7.49.08,7.58.09,8.62-7.37.79-5.68,2.52-11.11,3.84-16.65.26-1.11.63-2.09,1.62-2.8,2.67-1.93,13.86-1.72,16.71.21,1.7,1.15,1.49,2.59,1.13,4.2-1.27,5.73-2.73,11.42-3.74,17.2-.94,5.43-.43,5.77,4.92,5.64,2.86-.07,5.72-.01,8.58-.01v-.5Z"/><path class="cls-1" d="m1804.39,475.38c-9.2-.74-17.52-1.85-25.36-5.27-7.99-3.49-9.09-5.59-7.43-14.34,1.27-6.73,2.28-7.3,8.2-4.02,7.97,4.42,15.94,8.67,25.54,7.65,7.52-.8,14.94-1.97,20.05-8.33,6.47-8.04,4.69-16.98-4.25-22-6.5-3.65-13.28-6.84-19.6-10.78-16.42-10.24-17.54-23.54-8.92-39.85,7.36-13.93,27.25-22.01,43.23-19.08,3.44.63,6.87,1.26,10.29,1.99,6.78,1.44,9.39,4.65,9.43,11.62,0,1.42-.15,2.86-.42,4.25-1.35,6.92-1.45,7.05-7.68,3.44-7.37-4.28-15.11-6.47-23.68-5.36-5.15.67-9.37,3.15-12.87,6.69-6.25,6.33-4.8,16.02,3.32,21.11,4.96,3.11,10.37,5.49,15.53,8.27,2.79,1.5,5.57,3.05,8.23,4.75,15.3,9.79,12.46,28.81,5.3,40.29-9.08,14.54-24.18,17.31-38.92,18.97Z"/><path class="cls-1" d="m1161.8,361.05c9.81-.02,10.01-1.71,7.83,9.64-5.29,27.58-11.02,55.07-16.54,82.6-.62,3.11-1.01,6.27-1.65,9.37-1.92,9.38-3.47,10.66-13.02,10.86-8.3.18-8.46.06-7.12-8.05,4.56-27.56,10.16-54.91,16.14-82.18,1.19-5.41,1.57-10.95,3.07-16.34,1.29-4.62,3.53-6.86,8.43-5.93.92.18,1.9.03,2.86.03Z"/><path class="cls-1" d="m1166.1,342.06c-2.18-.35-4.38-.6-6.53-1.1-1.78-.41-3.18-1.55-3.83-3.28-3.95-10.58,4.54-21.98,15.54-20.92,6.5.63,10.09,5.46,8.85,11.9-2.02,10.51-4.99,13.31-14.03,13.4Z"/></svg>