<?xml version="1.0" encoding="UTF-8"?><svg id="Capa_1" xmlns="http://www.w3.org/2000/svg" viewBox="0 0 292.83 75.02" width="160" height="40" preserveAspectRatio="xMidYMid meet"><defs><style>.cls-1,.cls-2,.cls-3{stroke-width:0px;}.cls-2{fill:gray;}.cls-3{ fill: #007BFF; }</style></defs><path class="cls-3" d="m1.13,27.42c.14-6.13-.23-12.36-.66-18.59-.09-1.27-.29-2.54-.43-3.81-.15-1.32.06-1.63,1.35-1.98,1.04-.28,2.12-.48,3.19-.51,3.22-.08,6.28-.96,9.37-1.69.76-.18,1.53-.25,2.31-.32.86-.08,1.1.11,1.27.99.18.97.15,1.95.15,2.92,0,.7.02,1.4.11,2.1.09.67.21.73.77.32,1.26-.93,2.51-1.88,3.77-2.82C26.1,1.23,30.33-.22,35.03.05c3.69.21,7.08,1.33,9.72,4.14.84.89,1.41,1.95,1.92,3.04.27.58.49.7.94.2,1.63-1.82,3.46-3.42,5.61-4.61,4.35-2.39,8.93-3.51,13.89-2.36,2.85.66,5.52,1.62,7.59,3.82,1.9,2.01,2.95,4.4,3.09,7.15.21,4.16-.02,8.31-.23,12.47-.3,6.02.27,12.02.25,18.03,0,1.4,0,2.81-.09,4.21-.07,1.25-.86,1.99-2.05,2.04-3.96.17-7.92.21-11.89.14-.47,0-.95-.06-1.42-.13-1.25-.18-1.93-.93-1.99-2.21-.1-2.05-.07-4.11,0-6.16.22-6.19.21-12.37-.02-18.56-.04-1.17-.05-2.35-.53-3.47-.9-2.07-2.8-3.26-5.04-3.02-3.05.32-5.08,2.05-6.38,4.74-.33.69-.31,1.46-.34,2.21-.25,7.29-.13,14.58-.07,21.87,0,.98.02,1.95,0,2.93-.02,1.11-.3,1.39-1.43,1.48-1.9.16-3.81.03-5.72.04-2.64.02-5.27,0-7.91,0-2.02-.01-2.39-.37-2.36-2.37.1-7.12.36-14.23.11-21.35-.07-1.94.09-3.9-.38-5.83-.58-2.4-2.82-4.26-5.66-3.65-2.19.47-4.03,1.48-5.46,3.21-.62.75-.92,1.63-.91,2.63.04,7.49.06,14.98.07,22.48,0,1.03-.01,2.06-.07,3.08-.08,1.37-.46,1.77-1.84,1.87-2.5.19-5.01.24-7.52.21-1.96-.03-3.91-.12-5.87-.19-.2,0-.4-.03-.6-.06-.99-.17-1.18-.36-1.23-1.37-.21-4.43-.12-8.87-.1-13.3,0-1.95,0-3.91,0-5.98Z"/><path class="cls-3" d="m290.72,29.77c0,5.61,0,11.23,0,16.84,0,.23,0,.45-.03.67-.1,1.26-.66,1.88-1.93,1.96-2.96.19-5.92.15-8.88.14-1.18,0-2.36-.03-3.54-.06-.45-.01-.91-.03-1.35-.12-1.48-.3-1.9-.8-1.92-2.31-.05-4.19.31-8.36.34-12.55.03-4.34-.17-8.67-.37-13-.06-1.22-.34-2.37-1.12-3.36-.77-.97-1.82-1.49-2.97-1.73-2.72-.57-7.16,1.5-8.25,4.15-.16.38-.27.75-.26,1.15.14,7.07,0,14.13-.02,21.2,0,1.28,0,2.56-.03,3.83-.03,2.17-.52,2.67-2.74,2.74-3.39.1-6.78.1-10.16,0-.78-.02-1.56-.05-2.33-.12-1.73-.18-2.23-.73-2.22-2.45.02-5.74.04-11.48.08-17.22.03-4.56-.02-9.12-.28-13.68-.18-3.21-.75-6.36-1.4-9.5-.52-2.51-.24-2.15,1.67-2.41,3.83-.51,7.64-1.16,11.44-1.84,1.36-.24,2.72-.48,4.06-.78.54-.12.66.1.72.54.23,1.78.46,3.55.7,5.33.09.67.3.76.9.37,2.02-1.31,4.01-2.68,6.16-3.75,2.85-1.42,5.75-2.73,9.06-2.67,1.54.03,3.06.2,4.54.62,3.29.93,6.25,2.38,8.27,5.31,1.09,1.58,1.5,3.37,1.64,5.24.31,4.16.06,8.32.09,12.47.01,1.65,0,3.31,0,4.96.04,0,.09,0,.13,0Z"/><path class="cls-2" d="m146.83,1.72c1.33,0,2.66.06,3.99-.02,1.2-.07,1.74.8,2.31,1.53,1.26,1.6,2.45,3.27,3.62,4.94,1.32,1.88,2.58,3.79,3.89,5.68.64.92.94.95,1.58.03,1.72-2.5,3.39-5.03,5.11-7.53.97-1.41,1.97-2.8,3.2-4.01.38-.38.79-.55,1.32-.59,2.71-.2,5.41-.11,8.12.05.59.03.82.3.81.83-.07,2.63-.08,5.26-.25,7.88-.09,1.35-1.12,2.31-1.89,3.34-2.63,3.51-5.49,6.85-7.82,10.57-.72,1.15-.74,1.22.09,2.43,2.76,4.01,6.12,7.54,8.86,11.56.79,1.16,1.25,2.35,1.16,3.77-.07,1.07,0,2.15,0,3.23,0,.97-.15,1.91-.45,2.84-.2.62-.59.98-1.24.99-1.98.03-3.96.09-5.94-.07-.47-.04-.95-.07-1.43-.08-.81,0-1.39-.35-1.9-1-2.33-2.97-4.4-6.12-6.54-9.23-.49-.71-1.06-1.38-1.61-2.05-.4-.48-.75-.45-1.1.1-1.65,2.61-3.44,5.13-5.23,7.66-.99,1.4-1.95,2.83-3.1,4.12-.24.27-.49.53-.86.54-2.81.13-5.61.17-8.39-.29-.65-.11-.99-.49-1.05-1.17-.2-2.22-.35-4.43-.06-6.67.14-1.08.49-2.05,1.22-2.84,1.51-1.63,2.66-3.54,4.1-5.22,1.44-1.68,2.7-3.51,3.99-5.31.39-.54.78-1.1,1.11-1.68.26-.46.21-.94-.09-1.41-1.29-2.07-2.74-4.02-4.24-5.93-1.73-2.2-3.54-4.35-5.29-6.54-.59-.74-.84-1.63-.84-2.58,0-1.5,0-3.01,0-4.51,0-.81-.27-1.57-.27-2.38,0-.67.19-.96.9-.94,1.4.03,2.81,0,4.22,0,0-.02,0-.04,0-.05Z"/><path class="cls-3" d="m136.85,48.41c-1.06.14-1.98.1-2.91.07-7.2-.26-14.4-.17-21.6-.18-7.91-.01-15.81-.02-23.72-.03-1.55,0-3.11-.03-4.66-.06-.22,0-.51.05-.61-.19-.09-.23.15-.4.3-.57.49-.58,1.21-.8,1.84-1.14,5.2-2.82,10.3-5.81,15.48-8.67,2.28-1.25,4.44-2.7,6.81-3.79.6-.28,1.12-.74,1.67-1.13.38-.27.71-.23,1.1,0,4.98,2.89,9.97,5.78,14.97,8.64,3.09,1.77,6.19,3.51,9.29,5.27.76.43,1.46.95,2.04,1.77Z"/><path class="cls-2" d="m110.89,15.72c0-4.79,0-9.57,0-14.36,0-.25-.05-.59.18-.69.24-.11.42.2.61.36.83.72,1.3,1.69,1.8,2.64.99,1.86,2.05,3.7,3.16,5.49,1.99,3.22,3.8,6.54,5.74,9.79,2.75,4.59,5.46,9.21,8.16,13.83,2.26,3.86,4.49,7.74,6.73,11.62.21.36.36.75.53,1.13.08.19.15.4,0,.57-.19.22-.43.1-.62,0-1-.56-2-1.12-2.97-1.72-3.31-2.06-6.68-4.02-10.1-5.89-1.52-.83-2.95-1.85-4.48-2.66-1.26-.67-2.52-1.34-3.75-2.05-1.33-.77-2.66-1.56-4.01-2.31-.59-.33-.84-.79-.84-1.46,0-4.76,0-9.52,0-14.28-.04,0-.08,0-.13,0Z"/><path class="cls-2" d="m109.19,15.71c0,4.66-.01,9.32.01,13.98,0,.76-.23,1.25-.9,1.63-3.17,1.78-6.34,3.57-9.49,5.39-2.89,1.66-5.76,3.37-8.64,5.04-2.44,1.41-4.89,2.8-7.35,4.19-.15.08-.32.29-.53.09-.17-.17-.01-.33.04-.48.42-1.23,1.12-2.33,1.77-3.45,3.62-6.29,7.31-12.54,11.03-18.78,3.07-5.14,6.11-10.3,9.09-15.49,1.21-2.1,2.54-4.13,3.72-6.24.08-.15.19-.3.31-.41.22-.2.49-.46.79-.34.3.13.15.49.15.75,0,4.71,0,9.42,0,14.13,0,0,0,0,0,0Z"/><path class="cls-2" d="m211.9,16.57c0-4.81,0-9.62,0-14.43,0-.24-.19-.63.16-.71.31-.07.52.29.67.53.89,1.44,1.77,2.88,2.63,4.34,2.89,4.92,5.77,9.85,8.66,14.77,2.81,4.79,5.65,9.57,8.45,14.37,1.73,2.97,3.38,5.98,5.2,8.89.41.66.64,1.41.89,2.14.07.22.22.52-.02.69-.2.14-.43-.04-.62-.17-.94-.61-1.86-1.25-2.83-1.82-3.82-2.24-7.64-4.47-11.48-6.68-2.72-1.57-5.47-3.09-8.2-4.64-.91-.52-1.81-1.06-2.74-1.54-.6-.31-.78-.75-.78-1.39.01-4.78,0-9.57,0-14.36,0,0,0,0-.01,0Z"/><path class="cls-3" d="m211.31,49.17c-6.95,0-13.9,0-20.85,0-1.48,0-2.96-.04-4.44-.08-.32,0-.65-.05-.97-.11-.23-.04-.57-.02-.62-.31-.04-.26.24-.44.46-.54,2.59-1.21,4.95-2.8,7.44-4.18,3.02-1.67,6.01-3.39,9.01-5.1,3.03-1.73,6.05-3.46,9.07-5.2.34-.2.63-.21.98,0,5.08,2.87,10.14,5.78,15.18,8.74,3.15,1.85,6.36,3.61,9.54,5.42.39.22.76.49,1.14.73.17.11.36.23.27.48-.08.23-.3.14-.46.14-2.13.03-4.27.06-6.4.06-6.45,0-12.9,0-19.35,0v-.04Z"/><path class="cls-2" d="m210.18,1.09c-.05.92-.11,1.61-.11,2.31-.02,8.34-.02,16.69-.05,25.03,0,.92.08,1.84-.13,2.76-.14.6-.46.97-.96,1.24-3.12,1.68-6.23,3.39-9.29,5.18-2.77,1.61-5.55,3.21-8.33,4.81-2.35,1.35-4.73,2.66-7.04,4.09-.33.2-.81.58-1.07.35-.33-.3.02-.82.2-1.16.96-1.77,2.07-3.45,3.06-5.21,2.02-3.57,4.13-7.09,6.21-10.62,2.54-4.33,5.06-8.66,7.61-12.98,2.84-4.82,5.71-9.62,8.56-14.44.3-.51.75-.84,1.34-1.36Z"/><path class="cls-1" d="m258,61.46c-.15,2-.66,4.28-1.09,6.57-.31,1.62-.67,3.24-1,4.85-.03.15-.05.3-.09.44-.38,1.36-1.59,1.92-2.91,1.37-.26-.11-.33-.3-.31-.53.04-.5.03-1.01.16-1.49.77-2.88,1.03-5.87,1.8-8.75.2-.73.26-1.48.25-2.24-.02-1.67-1.25-2.55-2.85-2.08-1.98.59-3.11,2.06-4.14,3.72-.94,1.52-1.21,3.21-1.56,4.9-.38,1.89-.79,3.77-1.17,5.66-.13.63-.47.9-1.11.85-.5-.04-1-.03-1.5-.06-.5-.03-.72-.25-.58-.78.74-2.61,1.05-5.3,1.69-7.93.34-1.42.52-2.86.53-4.32.02-1.88-1.3-2.73-3.03-1.96-2.75,1.22-4.19,3.51-4.91,6.28-.56,2.15-.97,4.34-1.37,6.53-.39,2.14-.78,2.46-2.99,2.25-.68-.06-.35-.5-.32-.77.36-3.01,1.11-5.95,1.68-8.93.42-2.21.85-4.42,1.31-6.63.3-1.4.87-1.75,2.15-1.5.49.1.68.36.68.82,0,.5-.07,1-.23,1.48-.06.19-.15.43.09.53.18.08.32-.12.42-.24,1.03-1.27,2.39-2.02,3.87-2.62,2.03-.83,4.55.17,5.41,2.18.53,1.24.52,1.24,1.39.3,1.31-1.42,2.89-2.43,4.83-2.69,2.81-.38,4.87,1.53,4.87,4.78Z"/><path class="cls-1" d="m272.46,72.11c-.56.14-.88.55-1.23.88-1.28,1.21-2.82,1.87-4.52,1.99-2.13.16-4.64-.83-5.07-3.99-.62-4.62.44-8.87,3.8-12.31,1.01-1.03,2.26-1.72,3.71-2.01,2.11-.41,3.76.53,5.31,1.75.44.35.67.56.81-.24.2-1.1,1.75-1.74,2.71-1.21.35.19.22.47.18.72-.28,2.09-.81,4.13-1.19,6.19-.59,3.22-1.24,6.44-1.98,9.63-.3,1.31-1.29,1.75-2.26,1.07-.38-.27-.49-.63-.47-1.04.03-.47.11-.93.18-1.44Zm-2.68-12.66c-.73-.02-1.75.47-2.67,1.64-1.56,1.98-2.13,4.33-2.36,6.78-.1,1.08-.07,2.15.41,3.16.4.84,1.2,1.42,2.1,1.29.98-.14,1.96-.36,2.77-1.04,2.8-2.35,3.63-5.59,4.12-8.99.07-.49-.09-.95-.47-1.29-.98-.87-2.06-1.5-3.89-1.55Z"/><path class="cls-1" d="m219.02,66.59c-.23,0-.45,0-.68,0-1.71.03-1.33-.18-1.53,1.44-.1.78,0,1.55.23,2.3.37,1.18,1.71,2.11,3.07,2.16,2.04.07,3.97-.47,5.88-1.09.54-.18.55-.09.58.47.1,1.69-1.01,2.18-2.31,2.52-2.26.59-4.52.88-6.83.24-2.18-.6-3.53-2.21-3.72-4.46-.3-3.52.53-6.74,2.54-9.67,2.33-3.39,6.71-4.76,10.27-3.2,1.52.67,2.68,1.71,2.8,3.42.13,1.78-.77,3.17-2.24,4.16-1.28.86-2.75,1.18-4.25,1.41-1.27.19-2.54.31-3.82.3Zm.41-2.39c1.78-.09,3.56-.2,5.24-.85.79-.3,1.34-.9,1.44-1.77.09-.81-.23-1.46-.96-1.89-.64-.39-1.32-.57-2.08-.51-2.37.21-3.98,1.49-5,3.57-.62,1.27-.44,1.52.98,1.46.13,0,.25-.01.38-.02Z"/><path class="cls-1" d="m195.3,56.61c1.31-.1,2.62.51,3.88,1.18.64.34.44,1.07.27,1.63-.31,1.02-.48,1.1-1.42.63-1.21-.6-2.44-1.02-3.83-.83-1.26.17-2.02.9-2.46,2.04-.24.61-.13,1.17.32,1.67.44.5.97.87,1.54,1.18.73.39,1.47.77,2.2,1.14,3.05,1.54,3.12,4.42,1.51,6.86-1.63,2.47-4.25,2.91-6.97,2.86-1.05-.02-2.08-.32-3.07-.7-1.12-.42-1.59-1.58-1.13-2.68.33-.78.73-.92,1.36-.37,1.15.99,2.49,1.39,3.97,1.3,1.28-.08,2.47-.43,3.24-1.6.62-.94.56-1.84-.24-2.65-.74-.75-1.73-1.09-2.61-1.6-.5-.29-1.02-.55-1.47-.89-2.08-1.56-2.47-3.99-1.02-6.16,1.27-1.89,3.29-2.94,5.95-2.99Z"/><path class="cls-1" d="m167.4,75.01c-1.16-.07-2.58-.36-3.9-1.02-.86-.43-1.16-2.08-.53-2.82.25-.29.5-.14.74-.04.81.35,1.52.89,2.36,1.14,1.66.49,3.27.26,4.7-.64,1.45-.91,1.3-3.01-.19-3.91-.75-.45-1.53-.87-2.32-1.23-4.56-2.07-3.17-6.97-.39-8.67,2.57-1.57,5.17-1.57,7.77-.13.91.5.95,1.97.1,2.57-.32.22-.64-.02-.91-.16-.92-.48-1.86-.89-2.92-.91-.97-.02-1.88.11-2.66.81-1.26,1.15-1.18,2.76.29,3.65.85.52,1.75.98,2.66,1.39,3.75,1.69,3.26,5.38,1.46,7.56-1.21,1.46-3.7,2.44-6.26,2.41Z"/><path class="cls-1" d="m210.72,57.01c.4,0,.81-.04,1.2.01.44.06,1.07-.23,1.18.56.15,1.08-.14,1.76-.88,2.01-.96.31-1.94.13-2.92.11-1.37-.04-1.39-.06-1.67,1.31-.58,2.84-1.14,5.69-1.71,8.53-.04.22-.04.45-.06.67-.17,1.81.59,2.19,2.34,1.98.4-.05.78-.21,1.17-.26.67-.08.98.27.9.94-.09.68-.48,1.18-1.05,1.47-1.73.91-3.51.83-5.19-.08-1.15-.62-1.38-1.8-1.32-2.99.09-2.13.47-4.23,1.02-6.29.41-1.5.45-3.07.96-4.55.16-.46-.03-.65-.49-.65-.48,0-.95,0-1.43,0-.5-.01-.74-.26-.67-.77,0-.05,0-.1,0-.15q.18-1.84,2.02-1.82c1.18.01,1.2.01,1.36-1.16.12-.9.4-1.75.61-2.63.04-.18.1-.33.26-.44.42-.3,2.19-.27,2.64.03.27.18.23.41.18.66-.2.9-.43,1.8-.59,2.71-.15.86-.07.91.78.89.45-.01.9,0,1.35,0v-.08Z"/><path class="cls-1" d="m284.75,75.02c-1.45-.12-2.77-.29-4-.83-1.26-.55-1.43-.88-1.17-2.26.2-1.06.36-1.15,1.29-.63,1.26.7,2.52,1.37,4.03,1.21,1.19-.13,2.36-.31,3.16-1.31,1.02-1.27.74-2.68-.67-3.47-1.03-.58-2.1-1.08-3.09-1.7-2.59-1.62-2.77-3.71-1.41-6.29,1.16-2.2,4.3-3.47,6.82-3.01.54.1,1.08.2,1.62.31,1.07.23,1.48.73,1.49,1.83,0,.22-.02.45-.07.67-.21,1.09-.23,1.11-1.21.54-1.16-.68-2.38-1.02-3.74-.85-.81.11-1.48.5-2.03,1.06-.99,1-.76,2.53.52,3.33.78.49,1.64.87,2.45,1.31.44.24.88.48,1.3.75,2.42,1.55,1.97,4.55.84,6.36-1.43,2.3-3.82,2.73-6.14,2.99Z"/><path class="cls-1" d="m183.34,56.98c1.55,0,1.58-.27,1.24,1.52-.84,4.35-1.74,8.69-2.61,13.03-.1.49-.16.99-.26,1.48-.3,1.48-.55,1.68-2.05,1.71-1.31.03-1.33,0-1.12-1.27.72-4.35,1.6-8.66,2.55-12.97.19-.85.25-1.73.48-2.58.2-.73.56-1.08,1.33-.94.15.03.3,0,.45,0Z"/><path class="cls-1" d="m184.02,53.98c-.34-.06-.69-.1-1.03-.17-.28-.06-.5-.24-.6-.52-.62-1.67.72-3.47,2.45-3.3,1.03.1,1.59.86,1.4,1.88-.32,1.66-.79,2.1-2.21,2.11Z"/></svg>