<?xml version="1.0" encoding="utf-8"?>
<!-- Generator: Adobe Illustrator 27.8.0, SVG Export Plug-In . SVG Version: 6.00 Build 0)  -->
<svg version="1.1" id="Capa_1" xmlns="http://www.w3.org/2000/svg" xmlns:xlink="http://www.w3.org/1999/xlink" x="0px" y="0px"
	 viewBox="0 0 55.7 47.9" style="enable-background:new 0 0 55.7 47.9;" xml:space="preserve">
<style type="text/css">
	.st0{fill:#0000FF;}
	.st1{fill:#808080;}
</style>
<path class="st0" d="M54.6,47.8c-1.1,0.1-2,0.1-2.9,0.1c-7.2-0.3-14.4-0.2-21.6-0.2c-7.9,0-15.8,0-23.7,0c-1.6,0-3.1,0-4.7-0.1
	c-0.2,0-0.5,0-0.6-0.2C1,47.1,1.3,47,1.4,46.8c0.5-0.6,1.2-0.8,1.8-1.1c5.2-2.8,10.3-5.8,15.5-8.7c2.3-1.2,4.4-2.7,6.8-3.8
	c0.6-0.3,1.1-0.7,1.7-1.1c0.4-0.3,0.7-0.2,1.1,0c5,2.9,10,5.8,15,8.6c3.1,1.8,6.2,3.5,9.3,5.3C53.4,46.4,54.1,46.9,54.6,47.8
	L54.6,47.8z"/>
<path class="st1" d="M28.7,15.1c0-4.8,0-9.6,0-14.4c0-0.3-0.1-0.6,0.2-0.7c0.2-0.1,0.4,0.2,0.6,0.4c0.8,0.7,1.3,1.7,1.8,2.6
	c1,1.9,2.1,3.7,3.2,5.5c2,3.2,3.8,6.5,5.7,9.8c2.8,4.6,5.5,9.2,8.2,13.8c2.3,3.9,4.5,7.7,6.7,11.6c0.2,0.4,0.4,0.8,0.5,1.1
	c0.1,0.2,0.1,0.4,0,0.6c-0.2,0.2-0.4,0.1-0.6,0c-1-0.6-2-1.1-3-1.7c-3.3-2.1-6.7-4-10.1-5.9c-1.5-0.8-2.9-1.8-4.5-2.7
	c-1.3-0.7-2.5-1.3-3.8-2c-1.3-0.8-2.7-1.6-4-2.3c-0.6-0.3-0.8-0.8-0.8-1.5c0-4.8,0-9.5,0-14.3C28.8,15.1,28.7,15.1,28.7,15.1
	L28.7,15.1z"/>
<path class="st1" d="M27,15.1c0,4.7,0,9.3,0,14c0,0.8-0.2,1.2-0.9,1.6c-3.2,1.8-6.3,3.6-9.5,5.4c-2.9,1.7-5.8,3.4-8.6,5
	c-2.4,1.4-4.9,2.8-7.3,4.2c-0.2,0.1-0.3,0.3-0.5,0.1c-0.2-0.2,0-0.3,0-0.5c0.4-1.2,1.1-2.3,1.8-3.5c3.6-6.3,7.3-12.5,11-18.8
	C16,17.5,19,12.4,22,7.2c1.2-2.1,2.5-4.1,3.7-6.2c0.1-0.1,0.2-0.3,0.3-0.4c0.2-0.2,0.5-0.5,0.8-0.3C27.1,0.3,27,0.7,27,0.9
	C27,5.7,27,10.4,27,15.1L27,15.1L27,15.1z"/>
</svg>
